<?xml version="1.0" encoding="UTF-8"?>
<svg id="Capa_2" data-name="Capa 2" xmlns="http://www.w3.org/2000/svg" viewBox="0 0 292 295.71">
  <defs>
    <style>
      .cls-1 {
        stroke-width: 0px;
      }

      .cls-2 {
        letter-spacing: -.02em;
      }

      .cls-3 {
        font-family: SegoePrint-Bold, 'Segoe Print';
        font-size: 105px;
        font-weight: 700;
      }
    </style>
  </defs>
  <g id="Capa_1-2" data-name="Capa 1">
    <g>
      <path class="cls-1" d="M141.05,38.07c-1.72-1.8-3.42-3.57-5.24-5.47.68-.51,1.33-1.05,2.03-1.53,5.44-3.73,11.36-6.45,17.75-8.29,1.36-.39,2.73-1.12,3.79-2.03,8.28-7.09,17.3-13.01,27.68-16.8,8.58-3.13,17.45-4.62,26.61-3.66,10.19,1.07,19.69,4.16,28.3,9.67.87.56,1.67,1.29,2.35,2.07,1.84,2.11,1.45,4.88-1.15,5.96-2.33.97-4.9,1.47-7.42,1.92-4.87.87-9.62,2.07-14.07,4.23-.44.21-.85.48-1.27.72,1.92,1.26,3.83,2.37,5.56,3.69,6.32,4.81,9.56,11.27,10.33,18.95.33,3.26.54,6.54.81,9.8.21,2.45,1.47,4.4,3.16,6.14,4.32,4.44,9.64,7.51,15.17,10.24,2.59,1.28,5.25,2.41,7.91,3.54,4.17,1.77,5.71,4.71,4.56,9-.62,2.3-1.72,4.34-3.6,5.94-.39.33-.64.87-.82,1.35-3,8.46-8.98,14.05-17.48,17.18-.86.32-1.41.72-1.83,1.6-1.66,3.41-4.68,5.36-8.13,6.74-4.94,1.98-10.05,1.94-15.24,1.22-6.89-.97-13.4-3.26-19.92-5.44-6.22-2.09-11.8-1.12-17.12,2.26-2.08,1.32-4.12,2.75-6,4.33-6.14,5.17-11.35,11.21-16.37,17.38-7.4,9.08-14.65,18.29-21.95,27.46-1.94,2.44-3.98,2.4-5.93-.09-10.21-13.05-20.41-26.11-30.7-39.11-3.41-4.31-7.04-8.46-11.75-11.56-3.68-2.42-7.53-3.03-11.83-1.73-3.06.92-6.22,1.66-9.39,2.03-6.25.73-11.82-1.24-16.87-4.73-3.13-2.16-5.65-4.88-7.72-8.02-.57-.86-1.32-1.61-2.04-2.35-3.01-3.08-4.63-6.68-3.51-10.91.44-1.65,1.68-3.15,2.73-4.59,1.74-2.37,3.74-4.58,5.43-6.98,2.02-2.86,2.64-6,1.78-9.48-1.94-7.92.54-14.9,5.25-21.28,1.37-1.86,2.93-3.6,4.52-5.28,3.78-3.97,4.07-8.5,2.19-13.28-.73-1.86-1.88-3.59-2.94-5.32-.78-1.27-1.26-2.52-.5-3.92.79-1.46,2.25-1.83,3.68-1.53,2.82.61,5.63,1.33,8.36,2.26,5.37,1.84,10.32,4.54,15.15,7.46.43.26.86.51,1.72,1.03.06-2.22.24-4.16.14-6.08-.2-3.85-1.34-7.49-2.85-11.03-.65-1.52-1.16-3.14.2-4.55,1.35-1.39,3.04-1.06,4.65-.54,7.18,2.28,13.9,5.54,20.39,9.24,10.25,5.86,19.6,12.89,27.71,21.37,8.85,9.25,16.3,19.42,20.58,31.49,1.93,5.45,2.77,11.08,1.53,16.83-.28,1.3-.84,2.56-1.33,3.81-.11.29-.46.5-.7.74-.24-.29-.61-.54-.7-.86-1.02-3.63-1.88-7.31-3-10.91-3.35-10.86-9.01-20.55-16.36-29.26-11.22-13.3-24.99-23.49-40.9-30.96-.46-.21-.92-.41-1.39-.6-.12-.05-.27-.02-.49-.04.22,2.19.49,4.36.64,6.53.41,5.85-1.63,10.53-7.13,13.35-3.63,1.86-7.36,3.51-11.04,5.28-5.35,2.58-10.61,5.29-14.68,9.71-4.18,4.54-5.98,9.65-4.46,15.76,1.14,4.58.21,9-2.35,12.91-1.92,2.93-4.36,5.54-6.58,8.29-.14.17-.28.34-.53.63.92.12,1.73.14,2.49.35,2.07.58,2.72,1.8,1.76,3.67-.66,1.28-1.68,2.39-2.77,3.91.84.99,1.86,2.35,3.06,3.54,4.19,4.19,9.2,6.83,15.33,6.69,2.45-.06,5.04-.47,7.28-1.39,8.9-3.66,16.28-1.02,23.04,4.74,6.23,5.3,11.44,11.48,16.48,17.82,7.18,9.03,14.31,18.09,21.55,27.25,1.28-1.65,2.52-3.34,3.86-4.96,7.4-8.97,14.73-18.01,22.28-26.86,4.7-5.51,10.07-10.43,16.29-14.33,7.5-4.71,15.53-5.86,24.08-3.17,4.38,1.38,8.73,2.87,13.15,4.1,4.96,1.38,10.01,2.15,15.16.95,3.32-.78,5.97-2.4,7.17-5.7.37-1.01,1.1-1.41,2.12-1.66,8.1-2.02,13.39-7.03,16.32-14.58-.87-.44-1.7-.81-2.48-1.27-2.9-1.73-4.3-4.92-3.46-8.13.25-.95-.01-1.33-.87-1.74-5.04-2.38-9.82-5.19-14.03-8.81-4.37-3.74-7.01-8.39-7.46-14.12-.27-3.45-.32-6.94-.93-10.33-1.32-7.23-6.2-11.74-12.82-14.63-1.92-.84-3.99-1.34-6.02-1.93-2.33-.67-2.84-1.81-1.42-3.76,2.29-3.14,5.42-5.37,8.78-7.32,3.89-2.26,8.1-3.65,12.56-4.34.49-.08.98-.2,1.68-.35-4.48-1.97-8.93-3.38-13.56-4.23-13.94-2.54-26.55,1.18-38.29,8.14-5.34,3.16-10.17,7.14-15.26,10.7-.99.69-2.08,1.36-3.22,1.72-6.43,2-12.67,4.39-18.5,7.75-.23.13-.48.23-.74.36ZM69.75,27.85c.15,3.38.3,6.57.44,9.7,2.92-1.5,6.08-3.13,9.59-4.94-3.54-1.68-6.87-3.26-10.03-4.76Z"/>
      <path class="cls-1" d="M220.92,61.73c-.13,1.02-.15,2.06-.4,3.05-.55,2.23-2.29,3.31-4.47,2.52-1.64-.59-3.26-1.49-4.59-2.59-1.35-1.12-2.7-1.91-4.44-2.2-1.34-.22-1.59-.8-.72-1.69,2.84-2.95,6.05-5.38,10.19-6.37,1.57-.38,2.7.05,3.22,1.53.64,1.84.96,3.78,1.42,5.68-.07.03-.14.05-.2.08Z"/>
      <path class="cls-1" d="M82.87,65.45c-1.1,1.3-2.13,2.67-3.31,3.89-3.23,3.35-6.94,6.04-11.5,7.43-1.07.33-2.26.43-3.39.42-1.15,0-1.57-.7-1.56-1.89.01-1.55-.25-3.11-.44-4.65-.22-1.73-.14-1.85,1.66-1.85,5.55,0,10.83-1.35,16.02-3.12.61-.21,1.23-.38,1.85-.55.12-.03.26,0,.39,0l.27.31Z"/>
      <path class="cls-1" d="M79.04,91.69c6.68-1.63,25.03,8.68,29.22,16.28-8.9-6.67-18.52-12.14-29.22-16.28Z"/>
      <path class="cls-1" d="M112.78,94.91c-9.68-3.64-19.54-6.74-29.68-8.96,10.86-.05,20.92,2.41,29.68,8.96Z"/>
    </g>
    <text class="cls-3" transform="translate(0 243.72)"><tspan class="cls-2" x="0" y="0">C</tspan><tspan x="71.16" y="0">odly</tspan></text>
  </g>
</svg>