<?xml version="1.0" encoding="UTF-8"?>
<svg id="Capa_2" data-name="Capa 2" xmlns="http://www.w3.org/2000/svg" xmlns:xlink="http://www.w3.org/1999/xlink" viewBox="0 0 419.11 398.72">
  <defs>
    <style>
      .cls-1, .cls-2 {
        stroke-width: 0px;
      }

      .cls-2 {
        fill: url(#Degradado_sin_nombre_5);
      }
    </style>
    <linearGradient id="Degradado_sin_nombre_5" data-name="Degradado sin nombre 5" x1="204.4" y1=".06" x2="215.28" y2="420.62" gradientUnits="userSpaceOnUse">
      <stop offset="0" stop-color="#fbb03b"/>
      <stop offset="1" stop-color="#fbb03b"/>
    </linearGradient>
  </defs>
  <g id="Capa_3" data-name="Capa 3">
    <ellipse class="cls-2" cx="209.56" cy="199.36" rx="209.56" ry="199.36"/>
  </g>
  <g id="Capa_1-2" data-name="Capa 1">
    <g>
      <path class="cls-1" d="M197.11,147.1c-2.25-2.35-4.48-4.68-6.87-7.18.89-.67,1.75-1.38,2.66-2,7.13-4.89,14.9-8.46,23.27-10.87,1.78-.51,3.58-1.47,4.97-2.66,10.86-9.3,22.68-17.06,36.3-22.03,11.26-4.1,22.88-6.06,34.89-4.8,13.36,1.4,25.82,5.45,37.1,12.67,1.15.73,2.19,1.7,3.08,2.72,2.41,2.76,1.9,6.4-1.51,7.82-3.05,1.27-6.43,1.93-9.73,2.52-6.39,1.14-12.61,2.72-18.45,5.55-.58.28-1.12.63-1.67.94,2.52,1.66,5.02,3.1,7.29,4.83,8.28,6.31,12.53,14.77,13.55,24.85.43,4.28.7,8.57,1.07,12.85.27,3.22,1.93,5.77,4.14,8.05,5.67,5.83,12.64,9.84,19.89,13.42,3.39,1.67,6.88,3.16,10.37,4.64,5.47,2.32,7.49,6.18,5.98,11.8-.81,3.01-2.25,5.69-4.72,7.79-.51.43-.85,1.13-1.07,1.78-3.93,11.09-11.77,18.42-22.92,22.53-1.13.42-1.85.95-2.4,2.09-2.17,4.47-6.14,7.02-10.66,8.84-6.47,2.6-13.18,2.55-19.98,1.6-9.03-1.27-17.57-4.27-26.11-7.14-8.16-2.74-15.48-1.47-22.44,2.96-2.73,1.74-5.4,3.6-7.86,5.68-8.06,6.78-14.88,14.7-21.47,22.79-9.71,11.91-19.21,23.98-28.78,36-2.55,3.2-5.21,3.15-7.77-.12-13.39-17.11-26.76-34.24-40.25-51.27-4.47-5.65-9.22-11.09-15.4-15.15-4.83-3.17-9.87-3.97-15.52-2.27-4.01,1.21-8.16,2.17-12.32,2.66-8.19.96-15.49-1.63-22.12-6.2-4.1-2.83-7.4-6.4-10.13-10.51-.74-1.12-1.73-2.11-2.68-3.09-3.95-4.04-6.07-8.76-4.61-14.31.57-2.16,2.2-4.12,3.58-6.01,2.28-3.11,4.9-6,7.12-9.15,2.64-3.75,3.46-7.86,2.34-12.43-2.55-10.39.71-19.53,6.88-27.91,1.79-2.44,3.84-4.72,5.93-6.92,4.96-5.21,5.34-11.14,2.87-17.41-.96-2.45-2.46-4.71-3.85-6.97-1.02-1.67-1.65-3.3-.66-5.14,1.04-1.92,2.95-2.4,4.83-2,3.7.79,7.39,1.75,10.96,2.97,7.05,2.41,13.54,5.96,19.86,9.79.56.34,1.12.67,2.26,1.35.08-2.91.31-5.45.19-7.97-.26-5.04-1.75-9.82-3.73-14.47-.85-1.99-1.52-4.12.27-5.96,1.77-1.82,3.98-1.39,6.1-.71,9.42,2.99,18.23,7.26,26.74,12.12,13.45,7.68,25.69,16.89,36.33,28.02,11.6,12.13,21.37,25.46,26.99,41.29,2.54,7.15,3.63,14.53,2,22.07-.37,1.71-1.1,3.35-1.74,5-.15.38-.61.65-.92.97-.31-.37-.8-.71-.92-1.13-1.33-4.76-2.47-9.58-3.93-14.31-4.39-14.24-11.82-26.95-21.45-38.37-14.71-17.43-32.76-30.8-53.63-40.59-.6-.28-1.21-.54-1.83-.79-.16-.06-.35-.03-.65-.05.29,2.88.64,5.72.84,8.56.54,7.67-2.13,13.8-9.35,17.5-4.76,2.43-9.66,4.6-14.47,6.92-7.01,3.38-13.91,6.93-19.24,12.73-5.47,5.95-7.84,12.66-5.85,20.67,1.49,6.01.27,11.8-3.08,16.93-2.51,3.85-5.72,7.26-8.62,10.87-.18.22-.37.44-.7.83,1.21.16,2.27.18,3.26.46,2.72.76,3.57,2.36,2.31,4.82-.86,1.68-2.2,3.14-3.64,5.13,1.11,1.29,2.44,3.08,4.01,4.65,5.49,5.5,12.06,8.96,20.1,8.77,3.21-.08,6.61-.61,9.54-1.82,11.67-4.8,21.34-1.34,30.22,6.21,8.16,6.95,15.01,15.06,21.61,23.37,9.41,11.84,18.76,23.72,28.25,35.73,1.68-2.16,3.3-4.38,5.06-6.51,9.7-11.76,19.31-23.61,29.21-35.21,6.17-7.23,13.2-13.67,21.37-18.79,9.84-6.17,20.37-7.68,31.58-4.16,5.75,1.8,11.45,3.77,17.25,5.38,6.5,1.81,13.13,2.82,19.88,1.24,4.35-1.02,7.82-3.14,9.39-7.47.48-1.33,1.44-1.84,2.78-2.18,10.62-2.64,17.56-9.22,21.4-19.12-1.13-.58-2.23-1.06-3.25-1.67-3.81-2.26-5.64-6.46-4.54-10.66.33-1.25-.02-1.75-1.14-2.28-6.61-3.12-12.87-6.81-18.4-11.55-5.72-4.91-9.19-11-9.77-18.52-.35-4.52-.41-9.1-1.22-13.54-1.73-9.49-8.13-15.39-16.81-19.18-2.51-1.1-5.24-1.76-7.89-2.52-3.05-.88-3.73-2.37-1.86-4.93,3-4.11,7.11-7.04,11.51-9.6,5.09-2.96,10.61-4.79,16.47-5.69.64-.1,1.28-.26,2.21-.46-5.88-2.59-11.7-4.44-17.78-5.54-18.28-3.33-34.82,1.55-50.2,10.67-7,4.15-13.33,9.36-20.01,14.03-1.3.91-2.72,1.78-4.23,2.25-8.43,2.63-16.62,5.75-24.25,10.16-.3.17-.63.31-.97.47ZM103.61,133.7c.2,4.43.39,8.62.57,12.72,3.83-1.97,7.97-4.1,12.58-6.48-4.64-2.21-9-4.28-13.15-6.25Z"/>
      <path class="cls-1" d="M301.82,178.13c-.17,1.34-.2,2.7-.52,4-.72,2.92-3,4.34-5.86,3.31-2.15-.78-4.28-1.95-6.02-3.4-1.77-1.46-3.54-2.5-5.83-2.89-1.76-.29-2.08-1.04-.95-2.22,3.72-3.86,7.94-7.06,13.36-8.36,2.06-.49,3.54.06,4.22,2,.84,2.41,1.26,4.95,1.86,7.44-.09.04-.18.07-.27.11Z"/>
      <path class="cls-1" d="M120.81,183.01c-1.44,1.71-2.79,3.5-4.34,5.11-4.23,4.39-9.1,7.92-15.07,9.74-1.41.43-2.96.57-4.45.56-1.51-.01-2.05-.92-2.04-2.48.02-2.03-.32-4.07-.58-6.1-.28-2.27-.18-2.42,2.17-2.42,7.28,0,14.2-1.77,21.01-4.09.8-.27,1.61-.49,2.42-.72.16-.04.34,0,.51,0l.36.41Z"/>
      <path class="cls-1" d="M115.79,217.41c8.76-2.13,32.82,11.39,38.31,21.35-11.67-8.75-24.28-15.92-38.31-21.35Z"/>
      <path class="cls-1" d="M160.03,221.63c-12.7-4.78-25.62-8.83-38.91-11.75,14.24-.06,27.43,3.16,38.91,11.75Z"/>
    </g>
  </g>
</svg>