<?xml version="1.0" encoding="UTF-8"?>
<svg id="Capa_2" data-name="Capa 2" xmlns="http://www.w3.org/2000/svg" viewBox="0 0 437.81 138.86">
  <defs>
    <style>
      .cls-1 {
        stroke-width: 0px;
      }

      .cls-2 {
        letter-spacing: -.02em;
      }

      .cls-3 {
        font-family: SegoePrint-Bold, 'Segoe Print';
        font-size: 80.57px;
        font-weight: 700;
      }
    </style>
  </defs>
  <g id="Capa_1-2" data-name="Capa 1">
    <text class="cls-3" transform="translate(191.96 98.97) scale(.95 1)"><tspan class="cls-2" x="0" y="0">C</tspan><tspan x="54.61" y="0">odly</tspan></text>
    <g>
      <path class="cls-1" d="M80.45,31.97c-1.36-1.42-2.7-2.82-4.14-4.33.54-.4,1.05-.83,1.61-1.21,4.3-2.95,8.99-5.1,14.04-6.56,1.07-.31,2.16-.89,3-1.61,6.55-5.61,13.69-10.29,21.9-13.29,6.79-2.48,13.8-3.65,21.05-2.9,8.06.84,15.58,3.29,22.38,7.65.69.44,1.32,1.02,1.86,1.64,1.46,1.67,1.15,3.86-.91,4.72-1.84.77-3.88,1.16-5.87,1.52-3.86.69-7.61,1.64-11.13,3.35-.35.17-.67.38-1.01.57,1.52,1,3.03,1.87,4.4,2.92,5,3.81,7.56,8.91,8.18,14.99.26,2.58.42,5.17.64,7.75.16,1.94,1.16,3.48,2.5,4.86,3.42,3.52,7.62,5.94,12,8.1,2.05,1.01,4.15,1.91,6.26,2.8,3.3,1.4,4.52,3.73,3.61,7.12-.49,1.82-1.36,3.43-2.85,4.7-.31.26-.51.68-.65,1.07-2.37,6.69-7.1,11.11-13.83,13.59-.68.25-1.11.57-1.45,1.26-1.31,2.69-3.71,4.24-6.43,5.33-3.91,1.57-7.95,1.54-12.06.96-5.45-.76-10.6-2.58-15.75-4.3-4.92-1.65-9.34-.89-13.54,1.79-1.65,1.05-3.26,2.17-4.74,3.42-4.86,4.09-8.98,8.87-12.95,13.75-5.86,7.19-11.59,14.47-17.36,21.72-1.54,1.93-3.15,1.9-4.69-.07-8.08-10.32-16.14-20.66-24.28-30.93-2.7-3.41-5.57-6.69-9.29-9.14-2.91-1.91-5.96-2.39-9.36-1.37-2.42.73-4.92,1.31-7.43,1.6-4.94.58-9.35-.98-13.35-3.74-2.48-1.71-4.47-3.86-6.11-6.34-.45-.68-1.04-1.27-1.62-1.86-2.38-2.44-3.66-5.28-2.78-8.63.35-1.31,1.33-2.49,2.16-3.63,1.38-1.88,2.95-3.62,4.3-5.52,1.59-2.26,2.08-4.74,1.41-7.5-1.54-6.27.43-11.79,4.15-16.84,1.08-1.47,2.31-2.85,3.58-4.17,2.99-3.14,3.22-6.72,1.73-10.5-.58-1.48-1.48-2.84-2.32-4.21-.62-1.01-.99-1.99-.4-3.1.62-1.16,1.78-1.45,2.91-1.21,2.23.48,4.46,1.05,6.61,1.79,4.25,1.45,8.17,3.59,11.98,5.9.34.2.68.4,1.36.81.05-1.76.19-3.29.11-4.81-.16-3.04-1.06-5.92-2.25-8.73-.51-1.2-.92-2.48.16-3.6,1.07-1.1,2.4-.84,3.68-.43,5.68,1.8,11,4.38,16.13,7.31,8.11,4.64,15.5,10.19,21.92,16.9,7,7.32,12.89,15.36,16.28,24.91,1.53,4.31,2.19,8.77,1.21,13.31-.22,1.03-.66,2.02-1.05,3.01-.09.23-.37.39-.55.59-.19-.23-.48-.43-.55-.68-.8-2.87-1.49-5.78-2.37-8.63-2.65-8.59-7.13-16.26-12.94-23.15-8.87-10.52-19.77-18.58-32.36-24.49-.36-.17-.73-.33-1.1-.47-.1-.04-.21-.02-.39-.03.17,1.74.39,3.45.51,5.17.33,4.63-1.29,8.33-5.64,10.56-2.87,1.47-5.83,2.77-8.73,4.17-4.23,2.04-8.39,4.18-11.61,7.68-3.3,3.59-4.73,7.64-3.53,12.47.9,3.62.16,7.12-1.86,10.22-1.51,2.32-3.45,4.38-5.2,6.56-.11.14-.22.27-.42.5.73.1,1.37.11,1.97.28,1.64.46,2.15,1.42,1.39,2.91-.52,1.01-1.33,1.89-2.19,3.09.67.78,1.47,1.86,2.42,2.8,3.31,3.32,7.28,5.41,12.12,5.29,1.93-.05,3.99-.37,5.76-1.1,7.04-2.9,12.88-.81,18.23,3.75,4.92,4.19,9.05,9.08,13.04,14.1,5.68,7.14,11.32,14.31,17.05,21.56,1.01-1.31,1.99-2.65,3.05-3.93,5.85-7.1,11.65-14.24,17.62-21.25,3.72-4.36,7.96-8.25,12.89-11.34,5.93-3.72,12.29-4.63,19.05-2.51,3.47,1.09,6.9,2.27,10.4,3.25,3.92,1.09,7.92,1.7,11.99.75,2.62-.61,4.72-1.9,5.67-4.51.29-.8.87-1.11,1.68-1.31,6.41-1.6,10.59-5.56,12.91-11.53-.68-.35-1.35-.64-1.96-1-2.3-1.37-3.4-3.89-2.74-6.43.2-.75,0-1.06-.69-1.38-3.99-1.88-7.76-4.11-11.1-6.97-3.45-2.96-5.54-6.64-5.9-11.17-.21-2.73-.25-5.49-.74-8.17-1.04-5.72-4.9-9.28-10.14-11.57-1.52-.66-3.16-1.06-4.76-1.52-1.84-.53-2.25-1.43-1.12-2.97,1.81-2.48,4.29-4.25,6.94-5.79,3.07-1.79,6.4-2.89,9.94-3.43.39-.06.77-.16,1.33-.28-3.55-1.56-7.06-2.68-10.73-3.34-11.03-2.01-21.01.94-30.29,6.44-4.22,2.5-8.04,5.65-12.07,8.46-.78.55-1.64,1.08-2.55,1.36-5.08,1.58-10.03,3.47-14.63,6.13-.18.11-.38.18-.59.28ZM24.04,23.89c.12,2.67.23,5.2.34,7.68,2.31-1.19,4.81-2.48,7.59-3.91-2.8-1.33-5.43-2.58-7.93-3.77Z"/>
      <path class="cls-1" d="M143.63,50.69c-.1.81-.12,1.63-.31,2.42-.43,1.76-1.81,2.62-3.53,2-1.3-.47-2.58-1.18-3.63-2.05-1.07-.88-2.14-1.51-3.52-1.74-1.06-.18-1.26-.63-.57-1.34,2.25-2.33,4.79-4.26,8.06-5.04,1.24-.3,2.13.04,2.55,1.21.51,1.45.76,2.99,1.12,4.49-.05.02-.11.04-.16.06Z"/>
      <path class="cls-1" d="M34.42,53.63c-.87,1.03-1.68,2.11-2.62,3.08-2.55,2.65-5.49,4.78-9.09,5.88-.85.26-1.79.34-2.68.34-.91,0-1.24-.56-1.23-1.49.01-1.23-.19-2.46-.35-3.68-.17-1.37-.11-1.46,1.31-1.46,4.39,0,8.57-1.07,12.68-2.47.48-.16.97-.3,1.46-.43.1-.03.21,0,.31,0l.21.25Z"/>
      <path class="cls-1" d="M31.39,74.39c5.29-1.29,19.8,6.87,23.11,12.88-7.04-5.28-14.65-9.6-23.11-12.88Z"/>
      <path class="cls-1" d="M58.08,76.94c-7.66-2.88-15.46-5.33-23.48-7.09,8.59-.04,16.55,1.9,23.48,7.09Z"/>
    </g>
  </g>
</svg>